# xmcd CD database file
#
# Track frame offsets:
#	150
#	19783
#	43365
#	65839
#	93601
#	119282
#	138283
#	159413
#	190382
#	213434
#	237235
#	256191
#	279297
#
# Disc length: 4109 seconds
#
# Revision: 0
# Processed by: cddbd v1.5.2PL0 Copyright (c) Steve Scherf et al.
# Submitted via: CDex 1.78
#
DISCID=bd100b0d
DTITLE=Bernt Rosengren Quartet - Songs
DYEAR=2017
DGENRE=Jazz
TTITLE0=Solar
TTITLE1=If I'm lucky
TTITLE2=Billy's Bossa
TTITLE3=Indiana
TTITLE4=Please send me someone to love
TTITLE5=I'll keep loving you
TTITLE6=Tale of the fingers
TTITLE7=The moon was yellow
TTITLE8=Love and peace
TTITLE9=Yours is my heart alone
TTITLE10=Tenderly
TTITLE11=Up jumped spring
TTITLE12=The things we did last summer
EXTD=YEAR: 2017
EXTT0=
EXTT1=
EXTT2=
EXTT3=
EXTT4=
EXTT5=
EXTT6=
EXTT7=
EXTT8=
EXTT9=
EXTT10=
EXTT11=
EXTT12=
PLAYORDER=
